<svg width="24" height="34" viewBox="0 0 24 34" fill="none" xmlns="http://www.w3.org/2000/svg">
<g clip-path="url(#clip0_212_2102)">
<path d="M22.1496 21.4862C22.1496 21.4862 22.1522 20.3869 20.667 19.6716C19.5149 19.1163 20.1994 17.8142 21.4573 18.0913C22.7152 18.3684 22.6029 20.0501 22.5193 20.5682C22.4357 21.0863 22.1496 21.4862 22.1496 21.4862Z" fill="black"/>
<path d="M6.96606 11.6607C6.96606 11.6607 9.37083 10.2302 10.7842 9.17591C12.1975 8.12161 12.9408 6.04455 12.4065 4.7875C11.8723 3.53045 11.065 3.24323 11.065 3.24323C11.065 3.24323 11.3615 5.93867 9.46227 7.31399C7.03399 9.07003 6.96606 11.6607 6.96606 11.6607Z" fill="#FFD41C"/>
<path d="M15.1955 5.70442C15.1955 5.70442 13.9481 4.47102 13.2544 3.61159C12.5608 2.75215 12.4785 1.34079 13.0494 0.623282C13.6202 -0.0942265 14.1806 -0.164062 14.1806 -0.164062C14.1806 -0.164062 13.4922 1.49173 14.4314 2.62037C15.6344 4.06327 15.1955 5.70442 15.1955 5.70442Z" fill="#FFD41C"/>
<path d="M16.4128 19.7989C15.3169 20.0366 14.5984 20.5186 14.1609 21.1325C15.3338 21.5684 18.2703 23.0733 18.3473 27.2128C18.4179 31.0008 14.2092 33.3707 10.7124 33.7751C10.7411 33.7762 11.2401 33.8224 11.2702 33.8235C17.8274 34.0443 21.5202 31.0222 22.4006 26.6473C23.281 22.2736 19.9801 19.0251 16.4128 19.7989Z" fill="black"/>
<path d="M18.3485 27.2139C18.2714 23.0733 15.3337 21.5696 14.162 21.1337C13.1771 22.5202 13.6382 24.586 14.5016 26.0751C15.7491 28.2231 14.1881 32.2151 8.41589 31.0256C2.64366 29.8361 1.00172 26.6946 1.00172 26.6946L0.945557 26.5696C0.945557 26.5696 3.35033 32.7095 9.88932 33.6963C10.7553 33.8269 11.6514 33.7909 12.4952 33.5757C15.5531 32.7918 18.4099 30.53 18.3485 27.2139Z" fill="#58595B"/>
<path d="M4.07945 23.7469C6.1446 21.1776 10.6746 19.7234 14.2053 17.9922C17.7348 16.2609 16.4899 13.2073 16.4899 13.2073C16.4899 13.2073 15.9857 14.4328 12.5752 16.0818C9.1646 17.7308 7.21571 18.7964 7.21571 18.7964C7.21571 18.7964 4.4047 20.0174 2.7275 22.313C1.23317 24.3596 1.86277 26.4153 2.84245 27.5946C3.04491 27.7613 3.25391 27.9247 3.47466 28.0823C3.73199 28.2671 4.00107 28.427 4.27669 28.5712C2.832 27.3829 2.62039 25.5615 4.07945 23.7469Z" fill="#FFD41C"/>
<path d="M7.25742 29.4836C6.33392 28.8708 6.12492 27.9528 7.0837 26.3939C8.15872 24.648 10.5099 23.1736 10.5099 23.1736C11.5301 22.3231 12.9225 21.4896 15.1353 19.6006C18.8306 16.4479 16.4872 13.2073 16.4872 13.2073C16.4872 13.2073 17.7321 16.2609 14.2027 17.9922C10.6732 19.7234 6.14321 21.1765 4.07675 23.7469C2.61769 25.5615 2.83061 27.3829 4.27399 28.5712C5.24322 29.0781 6.29473 29.3495 7.25742 29.4836Z" fill="#FAA61A"/>
<path d="M7.25748 29.4836C9.07183 29.737 10.5662 29.5151 10.5662 29.5151C10.5662 29.5151 7.2 28.2603 8.82495 25.2258C9.27038 24.3946 9.74193 23.8404 10.3441 23.3144C10.3977 23.267 10.4538 23.2209 10.51 23.1736C10.51 23.1736 8.15747 24.648 7.08375 26.3939C6.12497 27.9528 6.33397 28.8708 7.25748 29.4836Z" fill="#FFD41C"/>
<path d="M14.1152 6.62805C14.1152 6.62805 15.4462 9.11849 13.7259 10.7225C12.0056 12.3264 8.55587 14.1456 4.69466 17.4447C1.13126 20.4871 0.351442 22.8514 0.568276 24.8192C1.05811 25.8521 1.84054 26.7746 2.84242 27.5946C1.86275 26.4153 1.23315 24.3596 2.72747 22.313C4.40337 20.0174 7.20393 18.802 7.20393 18.802C7.20393 18.802 9.09143 17.0843 12.0945 14.8912C19.1024 9.77518 14.1152 6.62805 14.1152 6.62805Z" fill="#FAA61A"/>
<path d="M4.69339 17.4447C8.55591 14.1456 12.0057 12.3264 13.7247 10.7225C15.4437 9.11849 14.1139 6.62805 14.1139 6.62805C14.1139 6.62805 13.7247 8.83127 10.4787 10.8959C7.2327 12.9606 1.95292 15.9917 0.538269 19.6356C-0.232407 21.6191 -0.137052 23.3335 0.568312 24.8181C0.351478 22.8514 1.1313 20.4871 4.69339 17.4447Z" fill="#FFD41C"/>
</g>
<defs>
<clipPath id="clip0_212_2102">
<rect width="24" height="34" fill="white"/>
</clipPath>
</defs>
</svg>
