<svg width="141" height="68" viewBox="0 0 141 68" fill="none" xmlns="http://www.w3.org/2000/svg">
<path d="M82.089 15.6724C78.4812 13.9311 74.3513 13.0588 69.6899 13.0588H49.5718V55.6023H69.6899C74.3482 55.6023 78.4812 54.73 82.089 52.9886C85.6937 51.2473 88.4918 48.7743 90.4771 45.5729C92.4623 42.3715 93.4534 38.6262 93.4534 34.3305C93.4534 30.0349 92.4592 26.2895 90.4771 23.0882C88.4918 19.8868 85.6937 17.4138 82.089 15.6724ZM77.9873 42.8999C75.7769 44.9664 72.8506 45.9981 69.2053 45.9981H61.6083V22.6598H69.2053C72.8506 22.6598 75.7769 23.6947 77.9873 25.7612C80.1945 27.8277 81.2981 30.6852 81.2981 34.3305C81.2981 37.9759 80.1945 40.8334 77.9873 42.8999ZM128.218 13.0588V29.0439H111.808V13.0588H99.7749V55.6023H111.808V39.0107H128.218V55.6023H140.252V13.0588H128.218Z" fill="white"/>
<path d="M38.2359 43.0531C38.2359 43.0531 38.2391 40.8678 35.6942 39.4453C33.7184 38.3417 34.8907 35.753 37.0479 36.3033C39.2051 36.8535 39.0113 40.1987 38.8675 41.2273C38.7237 42.2559 38.2359 43.0531 38.2359 43.0531Z" fill="white"/>
<path d="M28.3968 39.6985C26.5178 40.1706 25.2829 41.1304 24.5357 42.3528C22.8475 45.1102 23.6353 49.2183 25.1172 52.1789C27.2557 56.4495 24.5795 64.3905 14.6814 62.0238C4.78339 59.6572 1.96655 53.4107 1.96655 53.4107L1.86963 53.1606C1.86963 53.1606 5.9933 65.3722 17.2075 67.3355C17.7797 67.4356 18.4174 67.5106 19.0677 67.5387C19.3053 67.5637 19.5492 67.5887 19.5773 67.5887C30.8228 68.0264 37.1568 62.0176 38.6637 53.3169C40.1707 44.6194 34.5119 38.1572 28.3968 39.6985Z" fill="white"/>
<path d="M21.522 9.8449C20.606 7.34381 19.2241 6.77169 19.2241 6.77169C19.2241 6.77169 19.7337 12.1334 16.4761 14.8658C12.3117 18.3611 12.1961 23.5102 12.1961 23.5102C12.1961 23.5102 16.3197 20.6652 18.7427 18.5706C21.1656 16.4759 22.4411 12.346 21.522 9.8449ZM26.3053 11.6676C26.3053 11.6676 27.0588 8.40365 24.9985 5.53678C23.3853 3.29205 24.5671 0 24.5671 0C24.5671 0 23.6042 0.137553 22.6256 1.5663C21.6471 2.99505 21.7846 5.79939 22.9758 7.50638C24.1669 9.21337 26.3053 11.6676 26.3053 11.6676ZM17.9892 46.689C18.083 46.5952 18.1768 46.5015 18.2737 46.4108C20.0245 44.7194 22.4099 43.0625 26.2053 39.3046C32.5424 33.0331 28.525 26.5897 28.525 26.5897C28.525 26.5897 28.4563 26.7366 28.3156 26.993C27.8185 27.8152 26.2491 29.8161 21.8128 32.3047C15.9633 35.5842 12.6244 37.7039 12.6244 37.7039C12.6244 37.7039 12.6181 37.707 12.6088 37.7133C12.6682 37.6507 15.8914 34.2586 20.9937 29.938C33.0082 19.7648 24.4577 13.5059 24.4577 13.5059C24.4577 13.5059 23.7917 17.889 18.2237 21.9939C12.6588 26.102 3.60171 32.1296 1.17566 39.3765C-0.143666 43.3219 0.018906 46.7328 1.22568 49.6841C2.06667 51.7381 3.40788 53.5733 5.12425 55.2021C5.47128 55.5335 5.83081 55.8586 6.2091 56.1713C6.64991 56.5402 7.11261 56.856 7.58469 57.1436C9.24479 58.1503 11.0456 58.6911 12.6994 58.9569C15.8101 59.4602 18.3738 59.0194 18.3738 59.0194C18.3738 59.0194 12.6025 56.5246 15.3881 50.4907C16.1478 48.8368 16.9544 47.7332 17.9892 46.689Z" fill="white"/>
<path d="M54.8364 60.9202V66.951H53.9141L50.5876 62.8679V66.951H49.4778V60.9202H50.4001L53.7265 65.0032V60.9202H54.8364Z" fill="white"/>
<path d="M60.9799 66.0131V66.951H56.4561V60.9202H60.858V61.8581H57.5753V63.4244H60.4859V64.3467H57.5753V66.0099H60.9799V66.0131Z" fill="white"/>
<path d="M63.3495 61.8581V63.6933H66.2601V64.6406H63.3495V66.9478H62.2302V60.9171H66.6321V61.855H63.3495V61.8581Z" fill="white"/>
<path d="M68.9831 61.8675H66.9854V60.9202H72.1032V61.8675H70.1055V66.951H68.9862V61.8675H68.9831Z" fill="white"/>
<path d="M75.8425 66.8384C75.408 66.7071 75.0672 66.532 74.814 66.3132L75.2016 65.4441C75.4486 65.6379 75.7519 65.7973 76.1114 65.9224C76.4709 66.0474 76.8305 66.1068 77.1931 66.1068C77.6402 66.1068 77.9747 66.0349 78.1967 65.8911C78.4186 65.7473 78.5281 65.5597 78.5281 65.3221C78.5281 65.1502 78.4655 65.0064 78.3436 64.8969C78.2217 64.7844 78.0622 64.6969 77.8747 64.6343C77.684 64.5718 77.4276 64.4999 77.0993 64.4186C76.6398 64.3092 76.2677 64.1998 75.9832 64.0903C75.6987 63.9809 75.4549 63.809 75.2517 63.5776C75.0484 63.3463 74.9453 63.0305 74.9453 62.6335C74.9453 62.3021 75.0359 61.9988 75.2173 61.7237C75.3986 61.4517 75.6706 61.2329 76.0364 61.0734C76.4022 60.914 76.8461 60.8327 77.3745 60.8327C77.7434 60.8327 78.1029 60.8796 78.4593 60.9702C78.8157 61.0609 79.1221 61.1953 79.3816 61.3673L79.0283 62.2364C78.7625 62.0801 78.4874 61.9644 78.1998 61.8831C77.9122 61.8018 77.6339 61.7612 77.3651 61.7612C76.9243 61.7612 76.5929 61.8362 76.3803 61.9863C76.1645 62.1364 76.0582 62.3333 76.0582 62.5803C76.0582 62.7523 76.1208 62.8929 76.2427 63.0024C76.3646 63.1118 76.5241 63.1962 76.7117 63.2619C76.9024 63.3244 77.1587 63.3963 77.487 63.4776C77.9341 63.5807 78.303 63.687 78.5906 63.7996C78.8782 63.9121 79.1221 64.081 79.3284 64.3123C79.5316 64.5437 79.6348 64.8532 79.6348 65.244C79.6348 65.5785 79.5441 65.8786 79.3628 66.1475C79.1815 66.4163 78.9064 66.6321 78.5406 66.7946C78.1717 66.9541 77.7246 67.0354 77.1962 67.0354C76.7273 67.0354 76.2771 66.9697 75.8425 66.8384Z" fill="white"/>
<path d="M85.2622 66.0131V66.951H80.7415V60.9202H85.1434V61.8581H81.8607V63.4244H84.7713V64.3467H81.8607V66.0099H85.2622V66.0131Z" fill="white"/>
<path d="M90.458 66.951L89.2262 65.1846C89.173 65.1908 89.098 65.1939 88.9948 65.1939H87.6349V66.951H86.5156V60.9202H88.998C89.5201 60.9202 89.9765 61.0078 90.3642 61.1797C90.7518 61.3517 91.0488 61.5986 91.2552 61.9207C91.4615 62.2427 91.5647 62.6241 91.5647 63.0649C91.5647 63.5182 91.4553 63.909 91.2333 64.2373C91.0113 64.5656 90.6956 64.8094 90.2829 64.9688L91.671 66.951H90.458ZM90.0515 62.177C89.7983 61.9707 89.4294 61.8675 88.9417 61.8675H87.6317V64.2717H88.9417C89.4294 64.2717 89.8014 64.1654 90.0515 63.9559C90.3048 63.7464 90.4298 63.4494 90.4298 63.0649C90.4298 62.6804 90.3048 62.3834 90.0515 62.177Z" fill="white"/>
<path d="M98.3242 60.9202L95.6981 66.951H94.5945L91.959 60.9202H93.1751L95.1823 65.5722L97.2081 60.9202H98.3242Z" fill="white"/>
<path d="M99.0806 60.1542C98.965 60.0386 98.9087 59.8916 98.9087 59.7134C98.9087 59.5352 98.965 59.3883 99.0806 59.2726C99.1963 59.1569 99.3433 59.1006 99.5215 59.1006C99.6997 59.1006 99.8466 59.1569 99.9623 59.2726C100.078 59.3883 100.134 59.5352 100.134 59.7134C100.134 59.8916 100.078 60.0386 99.9623 60.1542C99.8466 60.2699 99.6997 60.3262 99.5215 60.3262C99.3433 60.3262 99.1963 60.2699 99.0806 60.1542ZM98.9619 60.9202H100.081V66.9509H98.9619V60.9202Z" fill="white"/>
<path d="M102.229 66.8384C101.794 66.7071 101.453 66.532 101.2 66.3132L101.588 65.4441C101.835 65.6379 102.138 65.7973 102.498 65.9224C102.857 66.0474 103.217 66.1068 103.579 66.1068C104.026 66.1068 104.361 66.0349 104.583 65.8911C104.805 65.7473 104.914 65.5597 104.914 65.3221C104.914 65.1502 104.852 65.0064 104.73 64.8969C104.608 64.7844 104.448 64.6969 104.261 64.6343C104.07 64.5718 103.814 64.4999 103.486 64.4186C103.026 64.3092 102.654 64.1998 102.369 64.0903C102.085 63.9809 101.841 63.809 101.638 63.5776C101.435 63.3463 101.331 63.0305 101.331 62.6335C101.331 62.3021 101.422 61.9988 101.603 61.7237C101.785 61.4517 102.057 61.2329 102.423 61.0734C102.788 60.914 103.232 60.8327 103.761 60.8327C104.13 60.8327 104.489 60.8796 104.846 60.9702C105.202 61.0609 105.508 61.1953 105.768 61.3673L105.415 62.2364C105.149 62.0801 104.874 61.9644 104.586 61.8831C104.298 61.8018 104.02 61.7612 103.751 61.7612C103.31 61.7612 102.979 61.8362 102.767 61.9863C102.551 62.1364 102.444 62.3333 102.444 62.5803C102.444 62.7523 102.507 62.8929 102.629 63.0024C102.751 63.1118 102.91 63.1962 103.098 63.2619C103.289 63.3244 103.545 63.3963 103.873 63.4776C104.32 63.5807 104.689 63.687 104.977 63.7996C105.264 63.9121 105.508 64.081 105.715 64.3123C105.918 64.5437 106.021 64.8532 106.021 65.244C106.021 65.5785 105.93 65.8786 105.749 66.1475C105.568 66.4163 105.293 66.6321 104.927 66.7946C104.558 66.9541 104.111 67.0354 103.582 67.0354C103.114 67.0354 102.663 66.9697 102.229 66.8384Z" fill="white"/>
<path d="M110.726 61.8675H108.729V60.9202H113.847V61.8675H111.849V66.951H110.73V61.8675H110.726Z" fill="white"/>
<path d="M114.813 60.1542C114.697 60.0386 114.641 59.8916 114.641 59.7134C114.641 59.5352 114.697 59.3883 114.813 59.2726C114.928 59.1569 115.075 59.1006 115.253 59.1006C115.432 59.1006 115.579 59.1569 115.694 59.2726C115.81 59.3883 115.866 59.5352 115.866 59.7134C115.866 59.8916 115.81 60.0386 115.694 60.1542C115.579 60.2699 115.432 60.3262 115.253 60.3262C115.075 60.3262 114.925 60.2699 114.813 60.1542ZM114.691 60.9202H115.81V66.9509H114.691V60.9202Z" fill="white"/>
<path d="M119.515 64.428L118.558 65.4097V66.951H117.439V60.9202H118.558V64.0122L121.537 60.9202H122.794L120.262 63.6151L122.95 66.9478H121.641L119.515 64.428Z" fill="white"/>
<path d="M123.838 60.1542C123.723 60.0386 123.667 59.8916 123.667 59.7134C123.667 59.5352 123.723 59.3883 123.838 59.2726C123.954 59.1569 124.101 59.1006 124.279 59.1006C124.457 59.1006 124.604 59.1569 124.72 59.2726C124.836 59.3883 124.892 59.5352 124.892 59.7134C124.892 59.8916 124.836 60.0386 124.72 60.1542C124.604 60.2699 124.457 60.3262 124.279 60.3262C124.101 60.3262 123.954 60.2699 123.838 60.1542ZM123.72 60.9202H124.839V66.9509H123.72V60.9202Z" fill="white"/>
<path d="M131.826 60.9202V66.951H130.904L127.578 62.8679V66.951H126.468V60.9202H127.39L130.716 65.0032V60.9202H131.826Z" fill="white"/>
<path d="M134.668 61.8675H132.67V60.9202H137.788V61.8675H135.79V66.951H134.671V61.8675H134.668Z" fill="white"/>
<path d="M138.751 60.1542C138.635 60.0386 138.579 59.8916 138.579 59.7134C138.579 59.5352 138.635 59.3883 138.751 59.2726C138.867 59.1569 139.014 59.1006 139.192 59.1006C139.37 59.1006 139.517 59.1569 139.633 59.2726C139.748 59.3883 139.805 59.5352 139.805 59.7134C139.805 59.8916 139.748 60.0386 139.633 60.1542C139.517 60.2699 139.37 60.3262 139.192 60.3262C139.014 60.3262 138.867 60.2699 138.751 60.1542ZM138.629 60.9202H139.748V66.9509H138.629V60.9202Z" fill="white"/>
</svg>
